<?xml version="1.0" encoding="utf-8"?>
<!-- Generator: Adobe Illustrator 17.0.0, SVG Export Plug-In . SVG Version: 6.00 Build 0)  -->
<!DOCTYPE svg PUBLIC "-//W3C//DTD SVG 1.1//EN" "http://www.w3.org/Graphics/SVG/1.1/DTD/svg11.dtd">
<svg version="1.1" id="Layer_1" xmlns="http://www.w3.org/2000/svg" xmlns:xlink="http://www.w3.org/1999/xlink" x="0px" y="0px"
	 width="595.28px" height="176px" viewBox="0 0 595.28 176" enable-background="new 0 0 595.28 176" xml:space="preserve">
<path fill-rule="evenodd" clip-rule="evenodd" fill="#11062B" d="M217.047,29.698c12.255,0,11.733,19.469,0,19.469h-7.214V29.698
	H217.047L217.047,29.698z M217.438,54.469c19.035,0,19.47-30.073-0.391-30.073h-9.952c-1.434,0-2.998,1.13-2.998,2.694v24.684
	c0,1.912,1.564,2.694,2.998,2.694H217.438L217.438,54.469z M246.571,52.991l1.869-3.824h16.036l1.912,3.824
	c1.565,3.39,6.823,0.695,5.041-2.694l-12.255-24.379c-1.087-2.391-4.215-2.304-5.389,0l-12.472,24.379
	c-0.869,1.825,0,3.39,1.39,4.172C244.267,54.773,245.875,54.469,246.571,52.991L246.571,52.991z M251.134,43.431l5.346-10.734
	l4.91,10.734H251.134L251.134,43.431z M298.562,45.82c-0.652,6.171-9.822,4.346-13.385,1.913c-1.477-1.217-2.738-0.826-3.868,0.304
	c-0.783,1.173-0.826,3.086,0.609,4.259c5.997,4.954,21.99,4.693,22.294-6.345c0.305-11.559-18.6-7.474-17.427-14.601
	c0.913-4.52,8.214-3.564,11.43-1.521c2.607,1.912,5.737-1.869,2.782-4.259c-5.997-4.606-18.73-3.085-19.73,5.345
	C279.918,43.256,297.997,39.389,298.562,45.82L298.562,45.82z M318.742,54.469c1.521,0,2.65-1.174,2.65-2.694v-9.517h14.168v9.517
	c0,1.521,1.39,2.694,2.955,2.694c1.522,0,2.695-1.174,2.695-2.694V27.09c0-1.565-1.173-2.694-2.695-2.694
	c-1.565,0-2.955,1.13-2.955,2.694v9.474h-14.168V27.09c0-1.565-1.13-2.694-2.65-2.694c-1.955,0-3.086,1.13-3.086,2.694v24.684
	C315.656,53.295,316.786,54.469,318.742,54.469L318.742,54.469z M353.958,51.817c0,3.694,5.737,3.607,5.737,0V27.003
	c0-3.694-5.737-3.563-5.737,0V51.817L353.958,51.817z M372.573,51.47c0,1.912,1.391,2.999,2.955,2.999
	c1.565,0,2.738-1.087,2.738-2.999V34.696l14.384,18.252c1.26,1.173,1.999,1.521,3.52,1.521c1.13-0.347,2.303-1.087,2.303-2.999
	V27.003c0-1.434-1.521-2.999-3.086-2.999c-1.478,0-2.738,1.565-2.738,2.999v16.861l-14.384-17.991
	c-1.174-1.13-1.521-1.521-3.086-1.521c-2.26,0-2.607,1.521-2.607,3.085V51.47L372.573,51.47z M437.645,48.776V39.52
	c0-1.347-1.478-2.565-3.086-2.565h-8.692c-3.477,0-3.867,5.303,0,5.303h6.519v5.345c-1.608,1.173-3.868,1.955-6.519,1.955
	c-5.692,0-9.952-3.911-9.952-10.343c0-6.128,5.084-10.343,10.343-10.343c2.26,0,4.52,1.174,6.128,2.738
	c2.607,2.304,6.431-1.564,3.781-4.172c-2.694-2.651-6.475-3.824-9.908-3.824c-9.17,0-15.993,6.823-15.993,15.602
	c0,10.343,6.475,15.558,15.601,15.558c3.825,0,7.605-1.086,10.691-3.65C437.298,50.297,437.645,49.558,437.645,48.776
	L437.645,48.776z M217.047,79.5c12.255,0,11.733,19.47,0,19.47h-7.214V79.5H217.047L217.047,79.5z M217.438,104.271
	c19.035,0,19.47-30.074-0.391-30.074h-9.952c-1.434,0-2.998,1.13-2.998,2.695v24.684c0,1.912,1.564,2.694,2.998,2.694H217.438
	L217.438,104.271z M243.615,101.62c0,3.694,5.736,3.607,5.736,0V76.806c0-3.694-5.736-3.563-5.736,0V101.62L243.615,101.62z
	 M278.962,95.623c-0.652,6.171-9.822,4.346-13.385,1.912c-1.478-1.217-2.738-0.826-3.868,0.304
	c-0.783,1.174-0.826,3.086,0.609,4.259c5.997,4.954,21.989,4.693,22.294-6.345c0.304-11.559-18.6-7.474-17.427-14.601
	c0.913-4.52,8.213-3.564,11.43-1.521c2.608,1.912,5.737-1.869,2.782-4.26c-5.998-4.606-18.731-3.085-19.73,5.345
	C260.319,93.059,278.396,89.192,278.962,95.623L278.962,95.623z M304.183,101.577c0,3.867,5.737,3.78,5.737,0V79.631h7.214
	c3.868,0,3.868-5.563,0-5.563h-20.556c-3.781,0-3.781,5.563,0,5.563h7.605V101.577L304.183,101.577z M336.357,93.58h6.823
	l6.562,9.387c2.608,3.303,7.127,0.087,4.868-3.259l-5.78-7.04c9.213-3.695,6.953-18.47-4.085-18.47h-11.56
	c-1.434,0-2.608,1.13-2.608,2.651v24.684c0,3.824,5.78,3.694,5.78-0.087V93.58L336.357,93.58z M336.357,79.456h8.388
	c5.997,0,5.649,9.126,0,9.126h-8.388V79.456L336.357,79.456z M366.663,101.62c0,3.694,5.737,3.607,5.737,0V76.806
	c0-3.694-5.737-3.563-5.737,0V101.62L366.663,101.62z M403.096,82.499c0,2.303-1.174,3.476-3.043,3.476h-9.169V79.5h9.169
	C401.922,79.5,403.096,81.065,403.096,82.499L403.096,82.499z M401.488,104.271c6.519,0,9.909-4.085,9.909-9.083
	c0-3.216-1.521-5.866-4.954-7.214c1.825-1.608,2.39-3.52,2.39-5.476c0-4.433-3.085-8.301-8.779-8.301h-12.211
	c-1.565,0-2.651,1.13-2.651,2.695v24.684c0,1.521,1.086,2.694,2.651,2.694H401.488L401.488,104.271z M390.884,91.278
	c3.433,0,7.301,0,10.603,0c5.042,0,5.042,7.692,0,7.692h-10.603V91.278L390.884,91.278z M443.396,92.799
	c0,9.082-14.819,8.561-14.819,0V77.067c0-4.085-5.692-3.912-5.692,0v15.732c0,16.253,26.205,16.253,26.205,0V77.067
	c0-4.172-5.693-3.868-5.693,0V92.799L443.396,92.799z M469.704,101.577c0,3.867,5.736,3.78,5.736,0V79.631h7.214
	c3.868,0,3.868-5.563,0-5.563h-20.556c-3.781,0-3.781,5.563,0,5.563h7.605V101.577L469.704,101.577z M496.402,101.62
	c0,3.694,5.737,3.607,5.737,0V76.806c0-3.694-5.737-3.563-5.737,0V101.62L496.402,101.62z M545.829,89.061
	c0-10.3-7.953-15.558-15.558-15.949c-8.04,0-16.383,5.258-16.383,15.949c0,10.648,8.343,15.993,16.383,15.645
	C537.876,104.706,545.829,99.361,545.829,89.061L545.829,89.061z M540.136,89.061c0,6.823-5.345,10.3-10.343,10.3
	c-4.868,0-10.169-3.477-10.169-10.3c0-6.867,5.301-10.3,10.169-10.3C534.791,78.761,540.136,82.194,540.136,89.061L540.136,89.061z
	 M557.578,101.272c0,1.912,1.391,2.999,2.956,2.999s2.738-1.087,2.738-2.999V84.498l14.385,18.252
	c1.26,1.173,1.999,1.521,3.52,1.521c1.13-0.348,2.303-1.087,2.303-2.999V76.806c0-1.434-1.52-2.998-3.085-2.998
	c-1.478,0-2.738,1.564-2.738,2.998v16.861l-14.385-17.991c-1.173-1.13-1.521-1.521-3.085-1.521c-2.26,0-2.608,1.521-2.608,3.085
	V101.272L557.578,101.272z M220.871,145.426c-0.652,6.171-9.821,4.345-13.385,1.912c-1.478-1.217-2.738-0.826-3.869,0.304
	c-0.782,1.174-0.825,3.086,0.609,4.259c5.998,4.954,21.989,4.693,22.294-6.345c0.304-11.56-18.601-7.474-17.428-14.602
	c0.913-4.52,8.214-3.564,11.43-1.521c2.608,1.912,5.736-1.869,2.782-4.259c-5.998-4.606-18.731-3.085-19.731,5.345
	C202.228,142.862,220.306,138.994,220.871,145.426L220.871,145.426z M268.777,138.864c0-10.3-7.953-15.558-15.558-15.949
	c-8.04,0-16.384,5.258-16.384,15.949c0,10.648,8.344,15.993,16.384,15.645C260.825,154.508,268.777,149.163,268.777,138.864
	L268.777,138.864z M263.084,138.864c0,6.823-5.345,10.3-10.343,10.3c-4.868,0-10.169-3.477-10.169-10.3
	c0-6.867,5.301-10.3,10.169-10.3C257.739,128.564,263.084,131.997,263.084,138.864L263.084,138.864z M298.779,129.651
	c1.912,0,3.042-1.565,3.042-2.956c0-1.564-1.13-2.695-3.042-2.695h-15.254c-1.912,0-3.085,1.13-3.085,2.695v24.685
	c0,1.521,1.174,2.694,3.085,2.694c1.522,0,2.607-1.174,2.607-2.694v-9.127h11.082c1.565,0,3.129-1.173,3.129-2.607
	c0-1.522-1.565-3.085-3.129-3.085h-11.082v-6.91H298.779L298.779,129.651z M321.218,151.38c0,3.867,5.737,3.781,5.737,0v-21.947
	h7.214c3.868,0,3.868-5.563,0-5.563h-20.556c-3.78,0-3.78,5.563,0,5.563h7.605V151.38L321.218,151.38z M370.298,125.653
	c-1.129-2.652-3.867-2.521-4.911,0.13l-7.692,17.905l-6.432-17.905c-1.13-3.433-6.649-1.999-5.345,1.912l8.431,23.685
	c0.695,1.912,1.477,2.955,2.998,2.955c1.565,0,2.303-1.043,3.085-2.868l7.214-16.905l7.562,17.165
	c0.87,1.565,1.347,2.521,2.912,2.521c1.477,0,2.216-0.739,2.998-3.217l8.605-23.336c1.303-3.781-3.955-5.433-5.259-1.912
	l-6.475,17.905L370.298,125.653L370.298,125.653z M401.473,152.596l1.869-3.824h16.036l1.912,3.824
	c1.565,3.39,6.823,0.695,5.041-2.694l-12.255-24.38c-1.087-2.391-4.216-2.304-5.389,0l-12.472,24.38c-0.869,1.825,0,3.39,1.39,4.172
	C399.17,154.378,400.777,154.074,401.473,152.596L401.473,152.596z M406.036,143.036l5.345-10.734l4.911,10.734H406.036
	L406.036,143.036z M442.469,143.384h6.823l6.562,9.386c2.608,3.303,7.127,0.087,4.868-3.259l-5.78-7.041
	c9.213-3.694,6.953-18.47-4.085-18.47h-11.56c-1.434,0-2.608,1.13-2.608,2.651v24.684c0,3.824,5.78,3.694,5.78-0.087V143.384
	L442.469,143.384z M442.469,129.259h8.388c5.997,0,5.649,9.126,0,9.126h-8.388V129.259L442.469,129.259z M491.461,154.074
	c4.259,0,3.955-5.693,0-5.693h-13.255v-6.518h10.951c3.868,0,3.868-5.694,0-5.694h-10.951v-6.518h12.516c3.911,0,3.998-5.65,0-5.65
	h-15.602c-1.521,0-2.694,1.13-2.694,2.695v24.685c0,1.521,1.173,2.694,2.694,2.694H491.461L491.461,154.074z"/>
<linearGradient id="SVGID_1_" gradientUnits="userSpaceOnUse" x1="27.9494" y1="172.2112" x2="119.0041" y2="14.4998">
	<stop  offset="0" style="stop-color:#0400DB"/>
	<stop  offset="1" style="stop-color:#01F8FF"/>
</linearGradient>
<path fill-rule="evenodd" clip-rule="evenodd" fill="url(#SVGID_1_)" d="M24.848,9.789h64.883c21.79,0,41.595,8.909,55.948,23.263
	C160.033,47.406,168.942,67.21,168.942,89c0,21.789-8.909,41.595-23.263,55.948c-14.354,14.354-34.159,23.263-55.948,23.263H24.848
	c-3.947,0-7.531-1.61-10.124-4.204c-2.594-2.593-4.204-6.177-4.204-10.124V24.117c0-3.947,1.61-7.531,4.204-10.124
	S20.901,9.789,24.848,9.789L24.848,9.789z M79.237,23.338l0.02-0.031h-5.609c-8.897-0.04-17.939-0.032-27.056,0H24.848
	c-0.215,0-0.417,0.093-0.567,0.243c-0.15,0.15-0.243,0.352-0.243,0.568v129.766c0,0.215,0.093,0.417,0.243,0.567
	c0.15,0.15,0.352,0.243,0.567,0.243h56.729v-45.428H36.691H25.086l69.771-85.754v45.223h44.887h12.298l-1.483,2.322l0.927-2.29
	l-69.906,85.92c15.548,0.644,25.618-1.085,37.998-7.09l0.066-0.162c6.104-3.148,11.659-7.226,16.477-12.044
	c11.91-11.91,19.303-28.332,19.303-46.391s-7.392-34.481-19.303-46.391c-10.773-10.773-25.237-17.849-41.265-19.102v0.002
	C89.716,23.43,84.505,23.375,79.237,23.338L79.237,23.338z M24.99,109.266h-0.598l0.933-1.462L24.99,109.266L24.99,109.266z"/>
</svg>
